<svg version="1.1" id="Layer_1" xmlns="http://www.w3.org/2000/svg" xmlns:xlink="http://www.w3.org/1999/xlink" x="0px" y="0px"
	 width="100%" viewBox="0 0 711 642" enable-background="new 0 0 711 642" xml:space="preserve">
<path fill="#FDFDFD" opacity="1.000000" stroke="none" 
	d="
M166.000000,643.000000 
	C111.010101,643.000000 56.020199,643.000000 1.015151,643.000000 
	C1.015151,429.049408 1.015151,215.098801 1.015151,1.074100 
	C237.907059,1.074100 474.814148,1.074100 711.860596,1.074100 
	C711.860596,214.999939 711.860596,428.999969 711.860596,643.000000 
	C657.573730,643.000000 603.250732,643.000000 548.474915,642.572266 
	C550.154724,620.725647 549.605042,599.323547 546.722534,578.043640 
	C544.235107,559.680420 540.581787,541.473694 538.165710,523.102783 
	C534.475220,495.042206 531.366882,466.904480 528.085632,438.790863 
	C525.341858,415.281128 523.138916,391.698914 519.896729,368.259430 
	C516.708374,345.208527 511.067322,322.676849 502.578094,300.924286 
	C501.759674,298.827271 501.655090,296.451660 501.562927,294.126770 
	C504.388489,292.749603 507.012054,291.663055 509.326874,290.114868 
	C518.156799,284.209381 525.091553,276.423553 530.819946,267.561371 
	C540.582825,252.457626 545.170410,235.642334 544.611877,217.893478 
	C544.239075,206.045135 541.753723,194.242294 539.894592,182.469513 
	C538.761963,175.297302 537.650269,168.011536 535.365540,161.165085 
	C533.397888,155.268875 528.870544,154.324463 523.823669,157.858643 
	C514.493713,164.392075 504.013428,167.971649 492.987976,170.029602 
	C478.267120,172.777298 464.229095,177.053665 452.764954,187.224106 
	C445.141937,193.986908 438.319061,201.420349 435.550507,211.974869 
	C432.609741,211.333237 429.777496,210.871140 427.355316,209.617050 
	C410.684937,200.985886 393.197174,195.441574 374.377197,193.849457 
	C355.279480,192.233856 336.269745,192.177826 317.488495,196.106369 
	C307.468262,198.202347 297.699127,201.498840 287.657501,203.947052 
	C284.768402,201.886276 282.236511,199.322922 279.255707,198.593231 
	C275.927856,197.778580 275.576355,196.349899 275.624634,193.506699 
	C275.765320,185.220459 272.246155,180.070755 265.353851,177.918243 
	C258.854919,175.888580 252.737686,178.519608 247.799118,185.212646 
	C237.726028,178.122406 226.955536,173.902679 215.205505,171.421219 
	C203.686539,168.988541 192.380310,165.477661 182.418991,158.723190 
	C175.664200,154.142975 170.792923,155.992767 169.071808,164.140396 
	C167.535065,171.415237 166.732727,178.841995 165.450684,186.174515 
	C162.412537,203.550583 159.919205,220.984375 164.066895,238.482254 
	C170.225128,264.461975 183.267059,285.255096 208.903198,296.470825 
	C204.957458,309.168793 200.092682,321.296570 197.396332,333.888702 
	C193.452805,352.305084 190.703766,371.004974 188.140167,389.679382 
	C186.430634,402.132324 186.013931,414.758881 184.869125,427.294067 
	C182.987244,447.900055 181.220444,468.520996 178.958054,489.086426 
	C177.113312,505.855316 174.668198,522.559570 172.388718,539.278748 
	C170.667740,551.901611 168.571075,564.476685 167.050415,577.122192 
	C165.924011,586.489075 164.908524,595.930359 164.827057,605.346924 
	C164.718506,617.893616 165.564194,630.448608 166.000000,643.000000 
z"/>
<path fill="#F5C7C6" opacity="1.000000" stroke="none" 
	d="
M166.468658,643.000000 
	C165.564194,630.448608 164.718506,617.893616 164.827057,605.346924 
	C164.908524,595.930359 165.924011,586.489075 167.050415,577.122192 
	C168.571075,564.476685 170.667740,551.901611 172.388718,539.278748 
	C174.668198,522.559570 177.113312,505.855316 178.958054,489.086426 
	C181.220444,468.520996 182.987244,447.900055 184.869125,427.294067 
	C186.013931,414.758881 186.430634,402.132324 188.140167,389.679382 
	C190.703766,371.004974 193.452805,352.305084 197.396332,333.888702 
	C200.092682,321.296570 204.957458,309.168793 209.045868,296.138062 
	C214.918808,284.766174 220.311584,273.924133 226.346725,263.452301 
	C235.125443,248.219971 246.685669,235.280334 260.255249,224.088882 
	C263.105133,221.738464 265.429993,218.751526 268.372955,216.041016 
	C274.904724,212.708176 281.072601,209.414429 287.188416,206.026672 
	C287.599182,205.799133 287.616394,204.861069 287.816650,204.253479 
	C297.699127,201.498840 307.468262,198.202347 317.488495,196.106369 
	C336.269745,192.177826 355.279480,192.233856 374.377197,193.849457 
	C393.197174,195.441574 410.684937,200.985886 427.355316,209.617050 
	C429.777496,210.871140 432.609741,211.333237 435.604797,212.363800 
	C436.847717,213.829544 437.521210,215.351013 438.665009,216.313553 
	C444.348145,221.096069 450.425476,225.438995 455.869354,230.471802 
	C474.107544,247.332901 487.789398,267.445435 497.703583,290.189117 
	C498.381073,291.743347 500.024811,292.876434 501.219177,294.205353 
	C501.655090,296.451660 501.759674,298.827271 502.578094,300.924286 
	C511.067322,322.676849 516.708374,345.208527 519.896729,368.259430 
	C523.138916,391.698914 525.341858,415.281128 528.085632,438.790863 
	C531.366882,466.904480 534.475220,495.042206 538.165710,523.102783 
	C540.581787,541.473694 544.235107,559.680420 546.722534,578.043640 
	C549.605042,599.323547 550.154724,620.725647 548.011047,642.572266 
	C420.979095,643.000000 293.958221,643.000000 166.468658,643.000000 
z"/>
<path fill="#F3BCBB" opacity="1.000000" stroke="none" 
	d="
M267.996765,216.057892 
	C265.429993,218.751526 263.105133,221.738464 260.255249,224.088882 
	C246.685669,235.280334 235.125443,248.219971 226.346725,263.452301 
	C220.311584,273.924133 214.918808,284.766174 209.096268,295.775513 
	C183.267059,285.255096 170.225128,264.461975 164.066895,238.482254 
	C159.919205,220.984375 162.412537,203.550583 165.450684,186.174515 
	C166.732727,178.841995 167.535065,171.415237 169.071808,164.140396 
	C170.792923,155.992767 175.664200,154.142975 182.418991,158.723190 
	C192.380310,165.477661 203.686539,168.988541 215.205505,171.421219 
	C226.955536,173.902679 237.726028,178.122406 247.839737,185.516495 
	C249.145172,187.066803 249.919586,188.360626 250.989273,189.327957 
	C259.121826,196.682343 264.682190,205.649887 267.996765,216.057892 
z"/>
<path fill="#F3BCBC" opacity="1.000000" stroke="none" 
	d="
M501.562927,294.126770 
	C500.024811,292.876434 498.381073,291.743347 497.703583,290.189117 
	C487.789398,267.445435 474.107544,247.332901 455.869354,230.471802 
	C450.425476,225.438995 444.348145,221.096069 438.665009,216.313553 
	C437.521210,215.351013 436.847717,213.829544 435.903076,212.176849 
	C438.319061,201.420349 445.141937,193.986908 452.764954,187.224106 
	C464.229095,177.053665 478.267120,172.777298 492.987976,170.029602 
	C504.013428,167.971649 514.493713,164.392075 523.823669,157.858643 
	C528.870544,154.324463 533.397888,155.268875 535.365540,161.165085 
	C537.650269,168.011536 538.761963,175.297302 539.894592,182.469513 
	C541.753723,194.242294 544.239075,206.045135 544.611877,217.893478 
	C545.170410,235.642334 540.582825,252.457626 530.819946,267.561371 
	C525.091553,276.423553 518.156799,284.209381 509.326874,290.114868 
	C507.012054,291.663055 504.388489,292.749603 501.562927,294.126770 
z"/>
<path fill="#9D91BE" opacity="1.000000" stroke="none" 
	d="
M268.372955,216.041016 
	C264.682190,205.649887 259.121826,196.682343 250.989273,189.327957 
	C249.919586,188.360626 249.145172,187.066803 248.193375,185.620331 
	C252.737686,178.519608 258.854919,175.888580 265.353851,177.918243 
	C272.246155,180.070755 275.765320,185.220459 275.624634,193.506699 
	C275.576355,196.349899 275.927856,197.778580 279.255707,198.593231 
	C282.236511,199.322922 284.768402,201.886276 287.657501,203.947052 
	C287.616394,204.861069 287.599182,205.799133 287.188416,206.026672 
	C281.072601,209.414429 274.904724,212.708176 268.372955,216.041016 
z"/>
</svg>